<?xml version="1.0" standalone="no"?>
<!DOCTYPE svg PUBLIC "-//W3C//DTD SVG 20010904//EN"
 "http://www.w3.org/TR/2001/REC-SVG-20010904/DTD/svg10.dtd">
<svg version="1.0" xmlns="http://www.w3.org/2000/svg"
 width="2048.000000pt" height="2048.000000pt" viewBox="0 0 2048.000000 2048.000000"
 preserveAspectRatio="xMidYMid meet">
<metadata>
Created by potrace 1.16, written by Peter Selinger 2001-2019
</metadata>
<g transform="translate(0.000000,2048.000000) scale(0.100000,-0.100000)"
fill="#000000" stroke="none">
<path d="M0 10240 l0 -10240 10240 0 10240 0 0 10240 0 10240 -10240 0 -10240
0 0 -10240z m10275 7003 c4 -22 16 -38 40 -53 49 -30 65 -57 65 -109 0 -53
-29 -104 -69 -121 -37 -15 -41 -43 -41 -311 l0 -209 24 -15 c53 -35 50 -91 -6
-135 l-28 -21 0 -182 c1 -100 5 -240 9 -311 8 -125 9 -130 35 -149 15 -11 38
-37 52 -58 l24 -38 -30 -45 c-17 -25 -39 -48 -50 -51 -25 -8 -28 -30 -35 -229
-5 -158 -4 -171 16 -213 l21 -44 -21 -23 c-21 -23 -21 -23 -19 -557 3 -480 5
-538 20 -560 16 -25 21 -26 185 -38 159 -11 233 -21 313 -41 19 -5 73 -19 120
-30 124 -30 178 -45 245 -70 33 -12 85 -31 115 -42 76 -27 297 -135 402 -196
114 -66 490 -324 550 -377 15 -14 32 -25 37 -25 14 0 243 -212 291 -270 25
-30 85 -97 133 -150 53 -57 139 -171 216 -285 70 -104 141 -210 158 -235 17
-25 47 -74 67 -110 20 -36 66 -114 103 -175 36 -60 80 -137 98 -170 114 -209
252 -429 309 -493 16 -17 39 -47 50 -66 12 -18 43 -57 69 -87 53 -58 70 -55
60 9 -5 25 -3 33 5 28 7 -4 12 -18 12 -32 0 -13 4 -32 9 -42 5 -9 13 -30 17
-46 5 -16 18 -34 29 -40 11 -6 56 -34 100 -62 84 -55 292 -164 311 -164 6 0
17 -6 23 -13 6 -8 29 -19 50 -26 22 -6 81 -32 130 -57 50 -25 96 -42 101 -39
6 4 11 68 11 153 1 108 4 135 10 102 4 -25 8 -82 8 -128 1 -97 19 -152 51
-152 27 0 80 -27 99 -52 14 -17 35 -20 172 -25 151 -6 158 -5 188 16 l31 22
31 -22 c30 -21 36 -21 286 -17 239 3 255 5 266 23 20 36 56 65 81 65 18 0 27
8 35 30 12 37 26 38 43 3 10 -21 23 -29 52 -34 25 -4 46 -15 57 -30 47 -63 23
-59 337 -60 267 0 462 -6 469 -13 2 -1 -158 -6 -354 -10 -409 -8 -431 -10
-443 -41 -10 -27 -66 -75 -87 -75 -8 0 -23 -10 -32 -22 -20 -24 -41 -17 -41
13 0 10 -5 19 -12 19 -19 0 -88 51 -88 65 0 23 -33 27 -287 32 -246 6 -252 5
-279 -16 -25 -20 -29 -20 -50 -6 -18 12 -57 15 -182 15 -163 0 -226 -6 -217
-21 7 -10 -30 -30 -70 -39 -27 -5 -31 -11 -42 -60 -7 -30 -15 -82 -19 -115 -8
-72 -11 -66 -19 48 l-7 87 -31 -19 c-18 -11 -71 -29 -120 -42 -71 -17 -92 -27
-115 -54 -16 -17 -37 -34 -48 -38 -104 -32 -208 -82 -254 -122 -43 -37 -123
-85 -141 -85 -10 0 -25 -13 -34 -30 -9 -16 -24 -30 -33 -30 -21 0 -57 -36 -96
-95 -28 -43 -45 -66 -145 -196 -35 -46 -77 -113 -94 -149 -17 -36 -53 -96 -80
-133 -27 -37 -56 -87 -64 -109 -8 -23 -38 -78 -67 -122 -29 -45 -64 -103 -78
-131 -28 -53 -118 -204 -181 -301 -22 -32 -53 -82 -70 -111 -34 -55 -88 -124
-207 -268 -42 -49 -91 -110 -110 -136 -46 -60 -295 -293 -373 -348 -34 -24
-91 -64 -127 -89 -36 -26 -67 -49 -70 -52 -25 -31 -375 -243 -520 -316 -110
-54 -290 -133 -350 -152 -143 -46 -192 -60 -285 -84 -22 -5 -56 -14 -75 -19
-67 -18 -316 -49 -380 -48 -78 2 -79 1 190 49 96 18 227 48 290 67 121 38 354
148 453 215 32 21 70 43 84 49 14 5 44 22 67 38 22 16 62 40 89 55 43 24 157
129 331 301 201 200 371 392 506 574 36 48 80 107 98 132 19 24 51 78 72 120
20 42 53 100 71 130 19 30 45 77 58 104 14 28 36 68 50 90 39 62 61 106 72
150 6 22 29 78 52 125 37 78 68 167 118 345 38 131 52 175 60 175 8 0 12 24
33 187 18 139 19 340 2 412 -10 46 -17 56 -39 62 -26 7 -222 16 -407 20 -164
3 -30 17 170 18 96 1 191 4 211 7 36 6 36 7 49 78 8 39 12 103 10 141 -2 39
-4 117 -4 175 -1 70 -5 109 -13 118 -7 7 -13 22 -13 33 0 11 -11 59 -24 107
-14 48 -29 110 -35 137 -23 112 -30 143 -46 185 -9 25 -25 77 -37 115 -11 39
-40 111 -63 160 -23 50 -48 108 -55 130 -15 46 -54 128 -80 165 -9 14 -23 42
-29 62 -7 20 -38 79 -70 130 -31 51 -76 125 -100 163 -59 98 -147 222 -207
291 -28 33 -64 79 -81 104 -18 25 -72 89 -122 143 -50 53 -91 101 -91 105 0
22 -268 275 -364 344 -28 21 -62 46 -76 56 -252 190 -572 338 -850 392 -185
37 -329 59 -398 61 -53 2 -66 -1 -85 -20 l-22 -22 0 -624 1 -625 21 -22 c19
-19 38 -23 140 -29 136 -9 232 -26 393 -70 326 -88 640 -278 892 -537 117
-121 226 -262 300 -390 67 -115 148 -278 148 -297 0 -8 4 -23 9 -33 10 -17 39
-98 60 -163 6 -19 11 -45 11 -57 0 -11 4 -31 9 -44 17 -44 31 -124 46 -258 8
-74 17 -145 20 -156 7 -32 46 -52 117 -62 l63 -10 -62 -1 c-53 -1 -66 -5 -91
-28 -28 -26 -31 -36 -42 -138 -13 -126 -38 -280 -50 -310 -5 -11 -11 -33 -13
-50 -21 -128 -129 -384 -242 -570 -200 -330 -524 -617 -875 -773 -223 -99
-445 -157 -703 -183 -109 -11 -120 -15 -135 -37 -14 -22 -16 -89 -18 -591 -2
-311 0 -590 3 -619 4 -36 13 -63 29 -80 l23 -27 -27 -28 -27 -28 -3 -492 c-4
-457 -3 -494 14 -525 16 -29 16 -36 4 -55 -11 -17 -14 -61 -11 -212 2 -104 7
-199 11 -211 5 -12 18 -25 29 -29 11 -3 29 -21 40 -40 11 -19 28 -35 37 -35
19 0 19 -1 -68 -89 l-43 -45 -3 -302 -3 -302 24 -19 c39 -30 51 -60 37 -93 -7
-16 -23 -36 -36 -45 l-25 -16 3 -261 c3 -222 5 -262 18 -266 26 -9 79 -68 86
-97 9 -38 -26 -110 -65 -129 -36 -19 -38 -32 -48 -406 -6 -226 -9 -258 -14
-180 -4 52 -7 200 -8 327 l-1 233 -40 25 c-52 33 -74 76 -66 129 7 41 48 96
73 96 28 0 33 42 33 283 l0 245 -23 15 c-13 9 -30 29 -37 46 -11 27 -10 35 6
58 9 16 26 34 36 41 17 12 18 33 18 291 0 153 -3 292 -6 308 -3 17 -17 35 -34
45 -16 9 -38 35 -49 58 l-20 42 24 32 c14 18 38 44 55 59 l30 27 0 202 c0 173
-2 204 -17 220 -15 17 -15 19 0 36 15 17 17 68 17 529 l0 510 -25 23 c-22 21
-39 25 -143 31 -115 7 -277 29 -359 49 -24 5 -64 15 -90 21 -66 15 -110 29
-273 81 -94 30 -372 159 -535 248 -72 39 -194 101 -290 145 -38 18 -92 51
-120 74 -27 22 -90 67 -140 101 -49 33 -106 79 -125 101 -19 23 -66 67 -103
97 -71 58 -290 291 -367 391 -75 98 -214 303 -245 361 -7 14 -26 39 -42 55
-16 17 -37 48 -48 70 -10 22 -33 58 -50 80 -18 22 -45 65 -60 95 -15 30 -38
68 -51 83 -13 16 -24 35 -24 42 0 7 -15 33 -33 57 -18 24 -50 74 -71 112 -49
88 -89 146 -116 171 -11 10 -32 42 -46 69 -14 28 -39 65 -55 81 -16 17 -29 37
-29 45 -1 11 -4 10 -15 -4 -16 -21 -35 -14 -35 13 0 10 -7 24 -15 31 -8 7 -15
20 -15 29 0 9 -18 27 -40 41 -23 14 -47 35 -55 47 -8 12 -51 50 -95 84 -44 34
-80 65 -80 69 0 4 -21 19 -47 34 -27 15 -68 40 -93 56 -25 16 -52 29 -61 29
-8 1 -25 12 -37 25 -11 14 -40 30 -64 36 -24 7 -47 15 -53 20 -5 4 -24 11 -42
14 -17 4 -43 18 -58 31 -22 21 -27 22 -32 9 -6 -16 3 -313 12 -374 4 -33 4
-34 -4 -5 -5 17 -14 64 -20 105 -6 41 -16 100 -21 131 -6 30 -10 78 -10 106 0
95 -7 110 -53 117 -49 8 -157 64 -157 81 0 18 -48 25 -171 25 -104 0 -108 -1
-128 -26 l-20 -26 -27 25 c-24 22 -39 26 -133 33 -110 7 -426 -1 -455 -12 -9
-3 -13 -10 -10 -16 9 -14 -44 -58 -72 -58 -18 0 -27 -8 -35 -27 l-11 -28 -18
23 c-10 12 -27 22 -38 22 -22 0 -75 56 -67 70 14 22 -185 36 -605 41 -229 3
-30 17 263 18 209 1 275 4 302 15 19 8 35 20 35 26 0 19 36 51 66 59 17 4 35
19 42 34 16 33 32 35 32 4 0 -29 18 -47 46 -47 14 0 30 -14 47 -38 24 -37 29
-39 88 -45 34 -4 156 -7 272 -7 l210 0 34 26 34 26 24 -22 c22 -21 31 -22 142
-19 106 4 123 7 172 32 29 16 76 46 103 68 27 21 56 39 64 39 8 0 14 6 15 13
2 35 33 310 46 414 12 84 27 95 19 13 -11 -123 -19 -357 -12 -385 6 -23 9 -25
19 -13 7 8 41 27 77 42 109 46 151 70 167 94 9 12 22 22 30 22 18 0 131 59
156 81 9 9 30 22 45 30 15 7 50 34 78 59 163 144 174 156 191 200 9 25 23 61
31 80 8 19 16 39 16 44 2 20 26 17 26 -3 0 -12 4 -21 9 -21 10 0 68 85 96 140
10 19 35 56 56 81 22 26 45 57 52 70 7 13 24 42 37 64 14 22 32 52 40 67 37
67 117 198 150 243 20 28 39 58 43 69 11 29 167 264 220 332 17 23 55 74 82
114 28 39 55 75 61 78 5 4 27 30 48 57 21 28 67 82 104 120 37 39 85 93 106
122 21 28 60 65 85 82 25 16 89 72 142 123 53 51 125 110 160 130 35 21 86 56
113 78 27 22 83 56 125 76 42 20 177 86 301 148 398 197 477 230 730 305 41
12 89 27 106 32 17 5 40 9 52 9 11 0 31 4 44 9 35 14 147 29 303 42 123 10
142 14 157 33 16 19 18 65 18 565 0 540 0 545 -21 567 l-21 22 21 18 c20 18
21 27 21 224 0 113 -4 210 -8 215 -4 6 -16 15 -27 21 -11 6 -33 29 -48 52
l-28 41 21 40 c11 23 33 47 49 55 16 9 31 23 35 31 3 9 6 152 6 318 l0 301
-32 26 c-44 37 -44 83 0 119 l32 26 0 237 c0 239 -3 268 -24 268 -7 0 -27 16
-46 35 -28 28 -34 44 -38 89 -4 53 -3 57 30 88 18 18 42 38 53 44 19 11 20 26
26 290 4 153 8 281 9 284 2 3 7 -110 11 -250 5 -140 11 -269 14 -287z"/>
<path d="M10040 13749 c-19 -4 -62 -13 -95 -20 -97 -18 -266 -59 -315 -75
-139 -47 -446 -226 -525 -306 -22 -23 -60 -54 -85 -70 -25 -16 -97 -77 -160
-137 -63 -59 -157 -146 -209 -192 -52 -46 -106 -100 -121 -121 -22 -30 -127
-149 -190 -217 -9 -9 -29 -34 -45 -56 -16 -22 -38 -50 -49 -61 -12 -12 -39
-45 -61 -73 -22 -29 -53 -69 -70 -89 -66 -83 -257 -419 -316 -557 -17 -38 -48
-106 -70 -150 -21 -44 -59 -136 -84 -205 -25 -69 -50 -133 -55 -142 -11 -20
-60 -222 -71 -298 -16 -106 -43 -406 -42 -466 1 -36 8 -76 20 -100 l18 -39
302 -3 302 -2 35 30 c19 17 40 29 47 28 13 -3 15 6 50 242 12 83 45 234 59
265 5 11 11 31 13 45 6 31 61 180 80 218 8 15 38 74 67 132 29 58 67 125 84
149 17 24 36 51 41 60 66 108 282 342 410 442 216 170 458 296 710 368 30 9
56 15 186 46 37 8 111 18 165 21 107 6 150 17 164 43 5 10 10 299 11 644 3
723 13 657 -101 655 -36 0 -81 -4 -100 -9z"/>
<path d="M10055 12385 c-138 -14 -236 -36 -393 -85 -558 -176 -1046 -641
-1252 -1192 -17 -45 -35 -92 -39 -103 -42 -106 -91 -364 -91 -479 0 -84 1 -89
31 -118 28 -29 38 -32 132 -40 115 -11 284 -4 321 13 21 10 26 22 35 83 19
118 43 250 51 271 5 11 16 47 25 80 15 51 40 111 98 235 66 140 257 373 382
465 22 17 42 33 45 36 5 6 74 51 125 81 27 16 152 77 200 98 11 5 38 14 60 21
22 6 45 15 50 19 6 3 35 12 65 18 30 6 69 14 85 18 54 11 130 16 122 8 -4 -4
-29 -11 -55 -15 -99 -17 -118 -21 -137 -28 -11 -5 -49 -18 -85 -30 -172 -59
-270 -110 -399 -206 -132 -99 -298 -271 -348 -363 -11 -20 -38 -66 -60 -102
-22 -36 -52 -99 -67 -140 -16 -41 -37 -100 -48 -130 -35 -94 -71 -313 -61
-373 7 -47 36 -57 159 -57 104 0 124 5 124 29 0 10 11 27 23 40 26 24 52 79
87 186 22 65 65 148 97 186 17 20 63 111 63 124 0 12 94 85 109 85 5 0 15 21
22 47 12 40 20 49 58 66 24 10 67 20 95 21 55 1 156 48 156 72 0 23 100 67
145 65 22 -1 60 5 84 14 24 8 47 13 51 10 15 -9 57 16 71 41 14 28 28 16 30
-26 4 -60 17 160 18 306 1 179 3 174 -65 174 -46 0 -36 15 21 29 l45 11 0 254
0 255 -26 20 c-15 12 -32 20 -38 20 -6 -1 -60 -7 -121 -14z"/>
<path d="M10291 12381 c-29 -29 -33 -68 -29 -306 3 -203 4 -218 23 -231 11 -8
29 -13 40 -10 11 3 45 -1 75 -9 l55 -14 -82 3 c-63 3 -85 1 -94 -10 -9 -11
-10 -65 -5 -212 7 -211 13 -272 27 -251 6 10 17 6 47 -14 22 -16 62 -31 93
-36 52 -9 86 -20 119 -40 8 -5 51 -24 95 -42 90 -37 116 -53 228 -142 68 -54
143 -146 210 -256 22 -36 44 -67 48 -69 5 -2 9 -13 10 -25 0 -12 3 -16 6 -9 9
22 20 12 45 -40 16 -33 28 -81 32 -129 14 -142 39 -177 128 -179 20 0 39 -4
43 -10 5 -8 -27 -20 -100 -34 -26 -6 -30 -11 -31 -39 0 -18 -8 -48 -17 -67
-10 -18 -20 -50 -23 -69 -7 -43 -42 -91 -53 -73 -8 13 -10 11 -57 -93 -43 -96
-109 -190 -187 -268 -79 -80 -129 -116 -226 -166 -34 -18 -77 -40 -95 -50 -38
-20 -103 -38 -176 -46 -30 -4 -71 -12 -90 -19 -19 -7 -40 -11 -46 -9 -17 6
-23 -57 -30 -294 -8 -248 -16 -233 113 -222 76 7 225 31 271 45 12 3 22 4 22
1 0 -18 -250 -68 -337 -69 -74 0 -75 -3 -77 -277 -1 -296 -8 -281 133 -281 53
0 134 7 181 15 47 9 104 18 128 22 23 3 45 10 48 14 3 5 16 9 30 9 13 0 32 4
42 9 9 5 51 19 92 32 41 12 79 26 84 31 6 4 16 8 23 8 14 0 134 58 228 110 73
40 217 138 265 180 19 16 37 30 41 30 9 0 226 223 271 280 90 112 155 216 228
365 100 205 140 334 190 610 5 28 12 93 14 146 6 108 -3 131 -58 154 -32 14
-32 14 18 29 8 3 22 17 32 31 15 23 16 38 6 143 -27 276 -71 452 -163 652
-109 238 -242 431 -419 610 -151 153 -156 157 -311 261 -278 186 -551 286
-884 325 -157 18 -171 18 -194 -5z m394 -611 c3 -5 15 -10 27 -10 11 0 50 -14
87 -31 36 -17 75 -34 86 -39 48 -19 115 -56 115 -62 0 -5 8 -8 18 -8 9 0 36
-15 59 -33 23 -17 66 -51 95 -73 62 -48 181 -169 230 -234 103 -137 198 -300
229 -395 7 -22 17 -44 21 -49 4 -6 8 -22 8 -37 0 -15 5 -31 10 -34 6 -3 10
-19 10 -35 0 -16 5 -32 10 -35 6 -3 10 -19 10 -35 0 -16 4 -39 9 -52 5 -13 14
-70 21 -128 6 -58 17 -111 23 -118 8 -10 8 -18 0 -31 -6 -9 -16 -60 -23 -112
-6 -52 -16 -110 -21 -130 -5 -20 -9 -45 -9 -56 0 -23 -55 -198 -70 -225 -6
-10 -10 -24 -10 -31 0 -7 -14 -39 -32 -72 -17 -33 -41 -80 -54 -105 -12 -26
-29 -52 -38 -59 -9 -7 -16 -18 -16 -23 0 -17 -104 -143 -175 -213 -131 -129
-215 -189 -385 -274 -36 -18 -73 -37 -82 -42 -22 -11 -38 -12 -38 -1 0 4 15
13 33 20 44 18 161 76 167 82 3 3 26 18 52 33 26 15 53 33 60 40 7 6 31 25 53
42 141 104 314 320 393 490 13 28 32 68 43 90 10 22 19 48 19 57 0 9 5 20 10
23 6 3 10 17 10 30 0 13 4 26 9 29 9 6 11 12 35 166 18 110 20 216 6 225 -5 3
-10 17 -10 30 0 13 5 27 10 30 24 15 -1 263 -39 380 -42 131 -138 341 -173
379 -10 11 -18 24 -18 29 0 12 -99 142 -147 192 -90 94 -257 227 -343 272 -30
16 -64 34 -75 40 -33 19 -107 49 -150 63 -22 7 -44 16 -49 21 -6 5 -20 9 -33
9 -13 0 -23 5 -23 10 0 6 9 10 19 10 11 0 23 -4 26 -10z"/>
<path d="M8440 10323 c-88 -5 -120 -13 -120 -28 0 -8 -7 -15 -15 -15 -24 0
-33 -61 -24 -161 20 -216 52 -355 119 -524 142 -359 359 -647 665 -881 124
-94 291 -190 425 -243 47 -19 90 -37 95 -41 6 -4 21 -10 35 -13 14 -3 63 -16
110 -30 216 -65 457 -89 493 -49 15 16 17 50 17 269 l0 250 -25 11 c-14 7 -43
12 -65 12 -79 0 -75 15 5 20 l80 5 3 140 c2 77 0 192 -3 255 -6 100 -9 112
-21 96 -12 -17 -14 -18 -20 -3 -3 10 -17 17 -29 17 -13 0 -26 4 -29 8 -3 5
-20 9 -37 10 -17 0 -55 10 -83 20 -28 11 -82 32 -121 47 -38 14 -98 45 -133
67 -34 23 -74 42 -87 44 -43 4 -96 45 -131 99 -18 29 -51 71 -73 93 -23 23
-41 46 -41 52 0 5 -4 10 -10 10 -5 0 -12 11 -16 24 -3 13 -25 38 -48 56 -48
35 -74 76 -105 163 -11 32 -34 74 -50 93 -17 19 -31 43 -31 54 0 10 -5 22 -10
25 -8 5 -8 11 0 20 15 19 -18 25 -135 25 -141 0 -174 -7 -181 -37 -8 -30 16
-272 28 -279 4 -3 8 -20 8 -38 0 -17 4 -36 8 -42 4 -5 14 -27 21 -49 13 -41
16 -50 46 -120 33 -77 88 -179 111 -206 8 -8 14 -19 14 -23 0 -10 115 -151
155 -191 61 -61 172 -153 231 -193 82 -55 144 -90 207 -116 20 -9 52 -22 70
-30 67 -30 174 -64 240 -76 37 -7 66 -15 63 -18 -9 -8 -151 18 -208 39 -29 10
-60 19 -68 19 -20 0 -220 100 -298 149 -133 83 -296 235 -386 359 -25 34 -46
65 -46 68 0 3 -13 25 -29 48 -35 51 -111 208 -111 229 0 9 -4 19 -10 22 -5 3
-10 15 -10 26 0 10 -4 27 -9 37 -17 31 -51 184 -65 290 -11 76 -19 107 -32
116 -29 22 -161 29 -334 19z"/>
<path d="M7500 10312 c-8 -4 -16 -18 -18 -32 -19 -159 -23 -239 -18 -375 5
-131 11 -177 32 -250 14 -49 29 -108 34 -130 11 -50 33 -113 55 -155 9 -18 28
-75 41 -127 18 -71 53 -154 139 -328 63 -128 115 -238 115 -243 0 -6 15 -30
33 -54 18 -24 50 -74 71 -113 21 -38 55 -88 75 -110 21 -22 58 -72 83 -110 25
-39 53 -77 63 -85 10 -8 42 -44 70 -80 80 -99 196 -215 375 -376 19 -17 67
-65 107 -107 67 -72 221 -197 241 -197 5 0 12 -8 15 -19 7 -27 140 -122 232
-166 44 -21 98 -50 120 -65 63 -42 241 -128 298 -144 45 -12 169 -40 337 -76
74 -16 205 -17 224 -1 14 12 16 72 16 646 0 590 -1 633 -18 648 -11 10 -61 21
-147 32 -184 22 -280 38 -320 55 -11 4 -45 13 -75 20 -30 7 -59 16 -65 19 -5
4 -30 13 -55 21 -80 24 -292 131 -398 201 -179 119 -345 266 -462 409 -25 30
-47 57 -51 60 -31 26 -229 358 -229 384 0 7 -4 16 -8 22 -5 5 -23 47 -41 94
-18 47 -37 93 -42 102 -5 10 -9 26 -9 35 0 10 -7 36 -14 58 -20 58 -55 231
-71 359 -15 108 -25 140 -40 116 -8 -13 -55 25 -55 46 0 6 -7 15 -16 18 -22 8
-605 6 -624 -2z"/>
</g>
</svg>
