<?xml version="1.0" standalone="no"?>
<!DOCTYPE svg PUBLIC "-//W3C//DTD SVG 20010904//EN"
 "http://www.w3.org/TR/2001/REC-SVG-20010904/DTD/svg10.dtd">
<svg version="1.0" xmlns="http://www.w3.org/2000/svg"
 width="2048.000000pt" height="1152.000000pt" viewBox="0 0 2048.000000 1152.000000"
 preserveAspectRatio="xMidYMid meet">
<metadata>
Created by potrace 1.16, written by Peter Selinger 2001-2019
</metadata>
<g transform="translate(0.000000,1152.000000) scale(0.100000,-0.100000)"
fill="#000000" stroke="none">
<path d="M0 5760 l0 -5760 10240 0 10240 0 0 5760 0 5760 -10240 0 -10240 0 0
-5760z m5651 2362 c-2 -61 1 -97 8 -106 9 -11 9 -19 -1 -35 -26 -42 33 -339
98 -488 14 -32 31 -71 38 -88 30 -71 131 -267 146 -283 8 -9 45 -54 83 -98 37
-45 103 -116 147 -157 44 -42 80 -78 80 -82 0 -3 -9 -4 -19 0 -16 5 -18 2 -14
-17 10 -39 31 -55 99 -74 62 -18 119 -54 112 -70 -2 -4 14 -8 35 -9 33 0 47
-10 116 -80 84 -84 119 -108 80 -56 -12 17 -26 31 -29 31 -3 0 -28 26 -55 58
l-48 57 44 -41 c55 -51 134 -114 143 -114 13 0 5 43 -18 103 -13 34 -27 72
-30 83 -7 23 -135 159 -206 218 l-45 37 49 -33 c71 -47 254 -231 310 -310 26
-38 52 -68 57 -68 5 0 12 -8 16 -17 3 -10 24 -37 45 -60 21 -24 38 -52 38 -63
0 -11 21 -100 46 -198 43 -165 46 -186 47 -312 1 -114 -3 -153 -26 -250 -38
-162 -86 -276 -171 -409 -81 -124 -186 -243 -281 -317 -62 -49 -56 -42 46 58
140 136 208 226 282 373 83 165 117 280 117 398 0 52 -4 69 -16 74 -23 9 -39
-13 -77 -102 -41 -97 -82 -163 -137 -221 -35 -38 -41 -49 -35 -73 6 -29 -14
-58 -23 -32 -3 8 -9 5 -19 -8 -19 -27 -37 -28 -23 -1 6 11 8 25 5 30 -3 5 -1
11 5 15 11 7 14 55 3 55 -3 0 -14 -6 -22 -14 -16 -14 -91 -48 -91 -42 0 2 30
23 67 45 51 32 68 39 74 29 5 -7 9 -16 9 -20 0 -18 17 -5 50 39 21 28 30 48
23 50 -7 3 -3 18 13 46 24 43 32 82 37 179 4 68 5 68 -133 68 -127 0 -170 -8
-170 -30 0 -9 -9 -29 -20 -43 -29 -36 -63 -206 -49 -246 9 -25 6 -38 -20 -88
l-31 -58 27 -5 28 -5 -33 -14 c-38 -16 -165 -172 -157 -193 3 -8 -16 -27 -50
-50 -55 -36 -168 -178 -260 -326 -21 -34 -40 -60 -43 -58 -6 7 60 113 150 241
43 60 76 111 74 112 -2 2 -20 -6 -40 -18 -63 -37 -51 -13 19 36 71 51 114 104
187 230 84 143 148 343 148 458 0 38 -3 46 -22 51 -36 9 -176 7 -182 -3 -3 -5
-24 -7 -46 -4 -32 5 -39 3 -35 -8 3 -9 -8 -20 -28 -30 -39 -19 -156 -165 -156
-196 -1 -12 -5 -24 -11 -28 -5 -3 -7 -12 -4 -19 4 -10 -7 -16 -35 -21 -23 -4
-65 -16 -94 -27 -52 -20 -95 -29 -152 -31 -27 -2 -31 -6 -37 -42 -3 -22 -7
-114 -8 -205 -2 -122 -5 -155 -11 -125 -5 22 -9 96 -10 165 0 105 -14 247 -18
186 -1 -19 -1 -19 -20 1 -14 14 -37 22 -85 26 -36 3 -80 13 -98 22 -33 16 -33
16 7 -20 35 -31 37 -35 15 -29 -29 8 -67 33 -95 64 -15 17 -17 23 -6 29 11 7
8 19 -13 57 -36 66 -127 169 -136 154 -4 -7 -14 4 -23 29 -9 22 -25 45 -36 50
-25 14 -278 14 -286 1 -3 -5 -15 -10 -26 -10 -16 0 -19 -7 -19 -43 0 -109 51
-287 122 -425 58 -113 122 -211 232 -352 106 -136 156 -206 156 -215 0 -4 -21
21 -47 56 -27 36 -86 111 -133 168 -47 58 -110 141 -141 185 -44 63 -61 80
-77 78 -18 -3 -24 6 -37 55 -9 32 -25 85 -35 118 -20 64 -54 204 -65 270 -4
26 -19 54 -43 80 l-37 40 -161 3 -161 3 -8 -43 -8 -43 -6 40 -6 40 -47 -1
c-60 0 -128 -30 -128 -56 0 -11 -4 -17 -9 -14 -5 4 -11 1 -13 -5 -4 -12 6
-135 16 -191 5 -28 3 -27 -8 7 -7 22 -19 87 -26 145 -7 58 -16 109 -20 113
-12 13 -291 10 -304 -3 -6 -6 -16 -28 -22 -48 -11 -33 -12 -34 -13 -10 -1 36
-49 63 -126 74 l-60 8 69 7 c89 10 104 24 118 117 6 40 13 72 17 72 3 0 6 -37
6 -82 0 -78 1 -83 25 -95 29 -15 236 -18 272 -4 21 8 25 19 37 102 33 244 104
413 259 617 67 87 209 226 280 273 l47 31 -45 -38 c-91 -75 -247 -242 -269
-287 -29 -60 -37 -112 -20 -133 10 -12 23 -14 58 -9 l46 7 -35 -24 c-23 -16
-35 -32 -36 -48 0 -14 -4 -35 -8 -48 -6 -18 -11 -21 -22 -12 -32 27 -156 -62
-169 -120 -4 -17 -10 -28 -15 -25 -9 6 -50 -167 -50 -212 0 -33 1 -33 48 -33
45 -1 89 -20 75 -33 -3 -4 9 -7 28 -7 32 0 34 2 37 36 6 91 37 204 86 317 9
22 12 36 7 32 -15 -9 -14 -1 9 48 21 45 197 242 267 298 108 89 163 129 163
120 0 -5 -29 -35 -65 -67 -47 -43 -62 -63 -56 -73 12 -19 56 -6 84 25 12 14
44 39 71 56 72 44 133 97 163 143 36 53 75 94 90 95 14 0 43 28 43 41 0 19
-31 8 -67 -24 -45 -39 -127 -93 -122 -80 4 10 103 97 217 190 35 29 77 70 92
92 26 35 96 164 126 231 6 14 24 50 40 80 74 140 121 292 145 468 10 70 10 98
2 111 -7 11 -8 22 -3 27 12 12 15 109 6 151 -8 35 -1 56 17 50 8 -3 11 -32 8
-95z m3984 -2092 c1 -738 0 -730 60 -850 36 -71 108 -146 171 -178 100 -50
138 -55 482 -55 l323 -1 -3 -25 -3 -26 -363 -3 c-284 -2 -377 1 -431 12 -157
33 -275 122 -341 260 -21 45 -45 101 -51 126 -9 33 -14 231 -16 733 l-4 688
88 -3 88 -3 0 -675z m3830 185 c166 -35 310 -144 378 -286 l35 -73 7 34 c22
106 115 226 214 278 199 105 468 62 639 -102 76 -72 122 -152 154 -261 22 -78
23 -89 20 -450 -2 -366 -9 -497 -22 -445 -5 21 -12 24 -48 25 -23 1 -43 -4
-43 -10 -1 -5 -5 8 -9 30 l-7 40 -2 -53 c-1 -37 -5 -52 -13 -50 -9 3 -13 103
-16 409 -2 313 -6 420 -18 476 -64 301 -336 453 -591 328 -112 -55 -187 -152
-230 -296 -14 -45 -17 -127 -20 -486 -3 -289 -8 -433 -15 -433 -5 0 -8 6 -5
13 7 20 -8 50 -28 53 -10 2 -29 5 -42 9 -15 3 -23 1 -24 -7 -1 -7 -5 1 -9 17
-6 25 -8 20 -9 -27 -1 -44 -5 -58 -16 -58 -13 0 -15 55 -15 435 0 278 -4 453
-11 487 -19 93 -63 170 -133 236 -81 76 -137 97 -256 96 -107 -1 -179 -27
-250 -91 -69 -62 -104 -116 -137 -209 l-28 -79 -5 -435 c-4 -239 -7 -436 -8
-438 -1 -1 -36 -2 -78 -1 l-75 2 3 446 3 446 27 68 c58 145 149 244 283 309
136 65 263 82 400 53z m2719 -11 c261 -68 444 -311 446 -591 l0 -73 -546 0
-547 0 6 -78 c20 -257 199 -469 433 -513 140 -26 354 10 481 82 50 29 52 29
58 9 9 -29 1 -37 -73 -74 -132 -67 -313 -103 -450 -90 -91 8 -223 48 -302 91
-84 46 -200 163 -238 240 -64 128 -77 185 -77 343 0 124 3 156 23 220 27 87
82 185 141 252 80 91 235 174 371 199 60 11 199 2 274 -17z m1716 0 c157 -41
307 -156 378 -291 64 -122 72 -179 72 -529 0 -198 -4 -315 -10 -319 -6 -4 -10
19 -11 62 -1 37 -4 59 -6 48 -7 -27 -23 -36 -45 -24 -10 6 -22 7 -27 4 -5 -3
-14 7 -19 22 -8 22 -11 6 -13 -82 -2 -60 -2 -131 -2 -157 1 -36 -2 -48 -13
-48 -12 0 -14 61 -14 408 0 334 -3 418 -15 467 -41 156 -135 279 -261 341 -66
33 -84 38 -173 42 -76 3 -110 1 -152 -13 -122 -39 -213 -115 -278 -228 -57
-101 -62 -137 -71 -556 -5 -211 -11 -386 -14 -389 -3 -3 -6 9 -6 26 0 44 -9
62 -32 62 -11 0 -27 8 -36 17 -16 16 -17 14 -22 -33 -5 -41 -7 -30 -14 61 -4
61 -9 115 -11 120 -2 6 -4 -65 -4 -157 -1 -105 -5 -168 -11 -168 -6 0 -10 138
-10 394 0 442 5 490 64 611 47 96 126 180 222 236 86 51 118 63 221 84 83 18
222 13 313 -11z m-6775 5 c4 -6 7 -183 6 -393 -1 -430 8 -509 69 -625 100
-187 313 -288 518 -245 184 38 315 154 374 333 21 63 22 89 27 501 6 427 6
435 26 434 11 -1 48 -2 83 -2 l62 -2 0 -374 c0 -292 -3 -393 -15 -462 -40
-229 -185 -388 -425 -465 -81 -26 -103 -29 -226 -29 -127 0 -143 2 -228 31
-118 40 -187 83 -263 161 -70 74 -116 159 -144 266 -17 68 -19 113 -19 472 0
218 2 399 4 401 11 11 145 9 151 -2z m-3740 -281 c4 -34 11 -49 26 -53 10 -4
17 -10 14 -15 -3 -4 13 -11 35 -15 42 -7 46 -25 5 -25 -33 0 -72 -38 -84 -80
l-9 -35 -1 33 c-1 51 -39 82 -98 82 -26 0 -55 5 -63 10 -11 7 -6 10 21 10 52
0 100 11 93 21 -3 5 4 9 15 9 19 0 21 6 22 83 1 85 10 76 24 -25z m-4245 -53
c29 -10 32 -13 15 -17 -11 -3 3 -7 30 -9 28 -1 57 -3 65 -5 8 -1 38 -3 65 -4
44 -2 47 -3 20 -10 -16 -4 -63 -8 -103 -9 -59 -1 -75 -5 -89 -21 -10 -11 -23
-20 -30 -20 -7 0 -13 -12 -14 -27 l0 -28 -10 25 c-20 49 -57 69 -134 71 -124
3 -140 15 -27 20 84 4 106 8 113 22 6 9 16 17 23 17 8 0 17 12 21 28 l8 27 6
-24 c4 -16 18 -28 41 -36z m4900 -2 c16 -8 19 -13 10 -14 -33 -2 38 -17 88
-18 75 -1 56 -21 -20 -21 -82 0 -107 -22 -110 -94 l-1 -51 -6 44 c-4 29 -13
48 -26 55 -11 6 -25 18 -32 27 -9 12 -40 18 -125 25 l-113 8 117 6 c111 6 118
8 147 36 17 16 31 36 32 44 1 8 4 4 8 -10 4 -14 18 -30 31 -37z m-2381 -1783
c1 -3 28 73 61 169 32 95 64 179 70 185 6 6 -1 -20 -16 -59 -25 -65 -40 -115
-58 -189 -7 -27 -6 -28 10 -15 14 11 13 6 -5 -29 -28 -56 -39 -131 -20 -143 8
-5 39 -9 69 -10 62 -1 59 -3 -23 -19 -55 -11 -60 -14 -78 -53 -15 -34 -19 -69
-20 -187 -2 -116 -3 -133 -9 -85 -4 33 -8 96 -9 141 -1 44 -8 101 -17 126 -14
43 -19 47 -56 53 -42 7 -41 21 2 27 34 4 37 35 9 90 -20 40 -20 42 -2 26 27
-25 33 -23 34 15 1 17 3 24 6 14 2 -9 9 -15 14 -12 5 4 9 107 9 239 0 128 3
236 8 240 4 4 10 -111 13 -256 3 -144 7 -265 8 -268z"/>
<path d="M5657 7681 c-4 -18 -8 -203 -8 -410 -1 -227 -5 -360 -10 -336 -4 22
-8 178 -8 346 -1 168 -4 328 -8 354 l-6 49 -16 -50 c-21 -62 -46 -117 -148
-323 -45 -91 -83 -173 -85 -181 -2 -8 -8 -17 -15 -20 -11 -4 -293 -424 -293
-435 0 -2 16 7 36 20 20 14 42 25 48 25 13 -1 -37 -43 -73 -62 -35 -17 -44
-29 -95 -123 -100 -181 -172 -404 -182 -560 l-6 -90 32 -17 c25 -15 57 -18
160 -18 120 0 131 2 152 23 39 37 74 90 87 130 7 20 28 54 48 74 26 29 34 44
31 65 -4 24 -2 27 14 22 10 -3 30 3 46 14 15 11 56 32 92 47 37 15 76 40 91
57 20 24 32 30 52 26 17 -3 28 0 31 9 4 8 6 74 7 146 1 73 4 157 9 187 7 53 7
52 10 -35 1 -49 2 -129 0 -177 -3 -118 -1 -123 58 -124 41 -2 97 -19 209 -64
26 -11 78 -80 129 -171 29 -53 40 -66 55 -62 15 4 18 1 13 -11 -3 -9 -10 -16
-14 -16 -8 0 2 -59 13 -78 4 -5 21 -15 38 -22 27 -12 33 -11 40 2 12 22 43 12
59 -18 13 -23 18 -24 111 -24 91 0 98 2 104 21 21 66 -40 326 -122 519 -55
129 -90 185 -146 235 -44 39 -47 44 -19 30 17 -8 32 -12 32 -7 0 5 -37 64 -82
132 -46 68 -89 135 -97 149 -8 14 -33 55 -56 91 -89 138 -156 264 -211 395
-28 66 -90 249 -96 280 -3 14 -6 10 -11 -14z"/>
<path d="M4700 6311 c-22 -26 -63 -60 -90 -75 -27 -15 -52 -31 -55 -36 -3 -5
-12 -7 -20 -4 -9 4 -39 -18 -78 -55 -72 -69 -85 -98 -91 -214 l-5 -77 169 0
168 0 -1 40 c-1 31 5 44 21 56 42 29 52 65 52 189 0 87 4 124 16 147 12 24 13
36 5 54 -16 37 -46 29 -91 -25z"/>
<path d="M6540 6176 c0 -25 -4 -48 -10 -51 -8 -5 -7 -186 2 -257 2 -16 16 -18
133 -18 l130 0 -1 88 c0 62 -5 98 -18 125 -17 35 -36 49 -36 27 0 -21 -17 -8
-55 41 -38 49 -97 89 -130 89 -11 0 -15 -11 -15 -44z"/>
<path d="M6810 6143 c0 -5 10 -42 21 -83 11 -41 23 -105 26 -142 l6 -68 52 0
c50 0 52 1 51 28 -1 21 -6 27 -23 27 -32 1 -37 11 -23 45 11 26 9 39 -11 100
-13 39 -28 74 -33 79 -16 12 -66 23 -66 14z"/>
<path d="M15889 6137 c-176 -50 -320 -247 -344 -471 l-7 -66 461 0 461 0 0 48
c-1 132 -65 294 -152 380 -28 28 -79 65 -114 83 -57 28 -75 32 -162 35 -60 3
-115 -1 -143 -9z"/>
</g>
</svg>
